<?xml version="1.0" standalone="no"?>
<!DOCTYPE svg PUBLIC "-//W3C//DTD SVG 20010904//EN"
 "http://www.w3.org/TR/2001/REC-SVG-20010904/DTD/svg10.dtd">
<svg version="1.0" xmlns="http://www.w3.org/2000/svg"
 width="254.000000pt" height="227.000000pt" viewBox="0 0 254.000000 227.000000"
 preserveAspectRatio="xMidYMid meet">

<g transform="translate(0.000000,227.000000) scale(0.100000,-0.100000)"
fill="#000000" stroke="none">
<path d="M1580 2078 c-162 -63 -144 -61 -174 -20 l-26 37 0 -42 c0 -35 9 -56
53 -117 28 -41 56 -75 61 -76 5 0 45 14 88 31 l78 32 0 93 c0 52 -1 94 -2 93
-2 -1 -37 -14 -78 -31z"/>
<path d="M1147 2015 c8 -49 15 -91 17 -92 2 -2 37 9 80 24 l76 28 -6 45 c-4
25 -8 47 -10 49 -2 2 -29 -6 -61 -18 -47 -18 -58 -19 -64 -8 -5 8 -17 24 -27
37 -19 23 -19 22 -5 -65z"/>
<path d="M1260 1850 c-52 -21 -103 -39 -112 -39 -9 -1 -26 15 -38 34 -12 19
-27 35 -33 35 -7 0 -59 -18 -117 -40 -58 -22 -110 -40 -115 -40 -6 0 -18 12
-28 28 l-18 27 7 -33 c3 -19 28 -72 55 -119 27 -46 49 -86 49 -87 0 -2 -21
-11 -47 -21 -27 -10 -50 -21 -53 -26 -3 -4 -33 -18 -68 -32 l-62 -26 -20 39
c-11 22 -20 44 -20 49 0 5 27 20 61 32 65 24 65 25 39 93 l-9 25 -65 -24 -65
-24 -26 44 -26 44 -66 -24 c-51 -18 -69 -21 -75 -12 -17 27 -6 -7 18 -54 14
-28 24 -52 22 -54 -2 -1 -31 -13 -65 -25 -35 -13 -63 -24 -63 -25 0 -1 20 -45
44 -98 l44 -95 -68 -26 -69 -27 21 -43 21 -44 66 28 c45 18 65 32 63 42 -3 18
100 64 118 53 6 -4 2 11 -9 34 -12 22 -21 44 -21 49 0 9 110 56 115 50 1 -2
13 -23 25 -48 12 -25 24 -47 26 -49 5 -6 144 52 144 61 0 5 21 18 47 29 41 17
48 18 55 5 6 -12 15 -13 33 -6 21 8 26 5 50 -37 14 -25 24 -47 22 -49 -12 -12
-120 -53 -128 -49 -5 4 -18 23 -29 43 -19 36 -20 36 -14 7 4 -16 7 -34 8 -38
0 -4 -53 -30 -118 -57 -65 -27 -121 -52 -124 -55 -3 -3 3 -21 14 -40 21 -40
14 -41 145 15 51 22 98 40 104 40 7 0 20 -15 30 -34 11 -19 23 -33 27 -30 4 3
4 14 -2 24 -16 30 -13 34 50 59 34 14 60 30 60 38 0 17 110 68 120 56 4 -4 11
-29 14 -55 6 -39 4 -48 -8 -48 -24 0 -28 -17 -11 -51 10 -18 22 -29 30 -25 7
2 16 -2 19 -9 3 -8 12 -12 20 -9 9 3 21 -6 32 -25 10 -17 22 -31 26 -31 14 0
148 62 148 69 0 3 -4 12 -8 19 -7 10 -21 7 -63 -13 -30 -13 -59 -25 -66 -25
-12 0 -69 88 -62 94 2 2 30 14 63 27 l58 24 -5 38 c-3 21 -7 41 -10 43 -3 3
-22 -2 -43 -11 -88 -38 -81 -39 -110 11 -15 25 -23 49 -18 53 5 4 32 17 61 29
l52 21 21 -35 c25 -39 25 -39 75 -18 20 8 38 14 40 12 1 -2 37 -57 80 -123 42
-66 78 -121 80 -123 1 -2 21 5 44 14 23 9 43 15 44 13 31 -47 58 -91 55 -93
-26 -14 -101 -46 -108 -46 -6 0 -10 16 -10 35 0 19 -2 35 -5 35 -2 0 -20 -8
-40 -17 -30 -14 -35 -21 -30 -40 5 -20 -1 -26 -39 -45 -37 -18 -43 -24 -35
-39 5 -10 9 -21 9 -24 0 -5 -123 -65 -134 -65 -2 0 -18 24 -35 53 -29 49 -31
51 -31 22 0 -29 -1 -28 -29 20 -16 28 -32 69 -35 91 l-7 42 -136 -59 c-75 -32
-142 -59 -148 -59 -7 0 -20 18 -30 40 -10 23 -22 43 -26 45 -11 8 39 -141 66
-195 14 -27 25 -53 25 -57 0 -4 -25 -19 -55 -32 -43 -18 -58 -21 -69 -12 -11
9 -30 4 -89 -21 l-75 -34 19 -37 c11 -20 21 -37 23 -37 2 0 69 29 148 65 l143
64 23 -44 22 -45 42 21 c38 19 43 20 54 5 14 -20 48 -10 40 11 -3 8 -6 18 -6
21 0 4 -4 1 -9 -7 -7 -11 -13 -7 -25 17 -9 17 -16 35 -16 41 0 9 103 61 121
61 4 0 11 -9 14 -20 4 -11 14 -19 22 -18 15 3 70 -72 72 -98 1 -6 -23 -21 -51
-34 -29 -13 -54 -25 -56 -26 -2 -1 4 -16 13 -33 l16 -31 69 35 c38 19 72 35
74 35 3 0 19 -27 37 -59 l33 -59 85 43 c129 64 121 64 160 0 19 -31 32 -57 30
-59 -6 -5 -249 -126 -253 -126 -2 0 -7 29 -11 65 -3 36 -10 65 -15 65 -4 0
-68 -30 -140 -66 -73 -36 -138 -63 -144 -61 -6 3 -37 56 -70 118 -32 63 -61
117 -65 121 -3 4 -69 -22 -146 -58 -76 -35 -144 -64 -151 -64 -6 0 -23 27 -37
60 l-26 59 -68 -31 c-37 -17 -72 -34 -76 -38 -7 -6 59 -140 69 -140 3 0 31 14
64 30 72 36 78 37 85 7 l6 -24 72 38 c40 21 79 39 88 39 9 0 43 12 74 26 69
32 60 40 140 -117 l54 -106 -69 -33 c-38 -19 -72 -32 -74 -29 -2 2 -15 32 -28
67 l-23 62 -74 -35 c-41 -20 -80 -34 -87 -31 -7 3 3 -29 22 -70 l34 -74 -75
-37 c-41 -21 -75 -40 -75 -43 0 -3 14 -29 30 -57 l30 -53 534 267 534 267 5
65 c3 36 4 67 2 69 -2 2 -31 -11 -65 -28 -34 -17 -63 -30 -65 -28 -25 27 -75
130 -75 156 0 17 -2 32 -3 32 -2 0 -61 -27 -130 -60 -70 -33 -131 -60 -136
-60 -8 0 -71 99 -71 113 0 2 17 12 38 20 76 31 192 88 192 95 0 4 -7 16 -15
26 -8 11 -15 32 -15 47 0 22 7 29 32 38 28 10 35 9 45 -6 13 -17 55 -22 88 -9
24 9 35 -9 35 -61 0 -35 12 -60 71 -152 62 -95 74 -109 90 -101 26 14 25 15
60 -37 18 -27 34 -50 36 -53 2 -2 57 22 122 55 106 52 120 62 125 88 3 17 4
32 2 34 -2 3 -27 -7 -55 -21 -28 -14 -52 -26 -54 -26 -3 0 1 30 8 68 7 37 11
69 10 71 -2 1 -29 -9 -61 -23 -31 -14 -60 -26 -64 -26 -12 0 -80 108 -80 127
1 62 28 80 60 41 15 -19 21 -21 43 -11 25 12 28 9 65 -42 21 -31 42 -52 46
-48 4 4 16 -3 26 -17 18 -24 19 -24 53 -8 20 9 38 25 41 35 10 35 66 281 66
291 0 6 -28 -2 -62 -18 -69 -33 -68 -33 -116 34 -25 35 -29 45 -17 50 9 3 15
18 15 36 l0 30 -61 -30 c-43 -22 -58 -35 -51 -43 41 -54 130 -174 136 -184 4
-8 -14 -23 -53 -43 l-61 -30 -51 71 c-178 245 -194 270 -173 288 5 4 43 23 85
41 l77 33 7 84 c4 46 5 87 2 89 -2 3 -30 -6 -60 -20 l-56 -24 -37 45 c-29 36
-34 47 -23 54 8 5 17 9 22 9 4 0 7 7 7 14 0 12 -12 10 -55 -10 -31 -13 -57
-24 -59 -24 -1 0 -17 20 -35 45 l-32 44 26 7 c23 6 36 24 17 24 -5 0 -53 -18
-107 -40 -54 -22 -101 -40 -105 -40 -4 0 -20 18 -34 39 l-28 40 -45 -20 c-65
-28 -73 -26 -73 21 0 26 -4 40 -12 39 -7 0 -56 -18 -108 -39z m287 -91 c16 -6
31 -5 44 1 16 9 24 6 43 -17 21 -25 26 -26 50 -15 42 19 46 15 46 -40 0 -30 7
-61 15 -72 14 -19 15 -18 66 3 29 11 53 20 54 19 1 -2 14 -19 28 -39 33 -45
34 -53 1 -67 -17 -9 -24 -18 -20 -30 5 -13 -6 -22 -49 -40 -31 -12 -59 -22
-64 -22 -4 0 -21 18 -36 40 -30 43 -46 52 -38 21 3 -10 0 -22 -6 -25 -5 -4 -8
-13 -4 -21 4 -11 -11 -22 -51 -40 -31 -14 -58 -25 -61 -25 -4 0 -65 86 -65 93
0 2 27 15 60 28 40 16 60 29 60 40 0 10 13 22 30 28 28 9 30 14 30 57 0 40 -2
45 -17 39 -10 -4 -26 -9 -35 -12 -9 -3 -18 -12 -20 -20 -2 -8 -29 -25 -61 -38
l-57 -24 -60 90 c-33 49 -62 89 -63 89 -2 0 -1 -16 1 -35 2 -19 2 -35 -1 -35
-7 0 -50 70 -46 74 17 12 113 45 120 40 5 -3 17 -1 26 5 14 8 22 5 37 -15 10
-14 30 -30 43 -35z m-467 -51 c0 -16 50 -7 118 21 l71 29 31 -49 c26 -39 36
-48 54 -44 16 4 28 -4 50 -36 16 -22 25 -44 20 -48 -5 -4 -33 -17 -62 -29
l-53 -21 -27 44 c-15 25 -30 45 -34 45 -4 0 -30 -9 -58 -20 -28 -11 -55 -20
-59 -20 -5 0 -12 18 -16 41 -8 45 -5 45 -88 13 -54 -21 -48 -24 -91 41 -13 19
-14 18 -9 -10 l4 -30 -20 35 -19 35 46 19 c83 33 105 35 124 12 10 -12 18 -24
18 -28z m830 -444 c23 -32 29 -49 22 -56 -8 -8 -2 -24 20 -55 17 -23 29 -46
26 -49 -4 -3 -33 -18 -66 -34 l-60 -28 -37 56 c-35 51 -36 56 -20 68 16 12 15
15 -9 47 -14 19 -26 37 -26 41 0 5 95 53 111 55 3 1 20 -20 39 -45z"/>
<path d="M1740 1570 c0 -5 5 -10 11 -10 5 0 7 5 4 10 -3 6 -8 10 -11 10 -2 0
-4 -4 -4 -10z"/>
<path d="M433 1167 l-72 -30 20 -39 c11 -21 24 -38 29 -38 21 0 130 54 130 64
-1 6 -9 25 -18 42 l-17 31 -72 -30z"/>
<path d="M678 1007 c-71 -32 -73 -34 -59 -55 6 -10 24 -6 80 20 63 29 71 35
59 49 -12 15 -19 13 -80 -14z"/>
</g>
</svg>
